<svg width="320" height="316" viewBox="0 0 320 316" fill="none" xmlns="http://www.w3.org/2000/svg">
<path fill-rule="evenodd" clip-rule="evenodd" d="M160.132 0.666138C71.5833 0.666138 0 72.7772 0 161.988C0 233.3 45.8659 293.663 109.494 315.028C117.449 316.634 120.363 311.556 120.363 307.286C120.363 303.546 120.101 290.726 120.101 277.369C75.556 286.986 66.2799 258.139 66.2799 258.139C59.1212 239.442 48.5143 234.637 48.5143 234.637C33.9348 224.754 49.5763 224.754 49.5763 224.754C65.7489 225.823 74.235 241.314 74.235 241.314C88.5491 265.884 111.615 258.942 120.894 254.667C122.218 244.251 126.463 237.04 130.97 233.034C95.4422 229.294 58.0625 215.406 58.0625 153.44C58.0625 135.812 64.4214 121.39 74.4973 110.173C72.9075 106.168 67.3386 89.6053 76.0903 67.4377C76.0903 67.4377 89.6111 63.1635 120.098 83.997C133.15 80.4657 146.611 78.6693 160.132 78.6542C173.653 78.6542 187.436 80.5258 200.164 83.997C230.654 63.1635 244.175 67.4377 244.175 67.4377C252.926 89.6053 247.354 106.168 245.764 110.173C256.106 121.39 262.202 135.812 262.202 153.44C262.202 215.406 224.823 229.025 189.029 233.034C194.864 238.108 199.898 247.722 199.898 262.947C199.898 284.58 199.636 301.943 199.636 307.282C199.636 311.556 202.553 316.634 210.505 315.031C274.133 293.66 319.999 233.3 319.999 161.988C320.261 72.7772 248.416 0.666138 160.132 0.666138Z" fill="white"/>
</svg>
