<svg width="320" height="320" viewBox="0 0 320 320" fill="none" xmlns="http://www.w3.org/2000/svg">
<path d="M320 23.5294V296.471C320 302.711 317.521 308.696 313.108 313.108C308.696 317.521 302.711 320 296.471 320H23.5294C17.289 320 11.3042 317.521 6.89161 313.108C2.47898 308.696 0 302.711 0 296.471L0 23.5294C0 17.289 2.47898 11.3042 6.89161 6.89161C11.3042 2.47898 17.289 0 23.5294 0L296.471 0C302.711 0 308.696 2.47898 313.108 6.89161C317.521 11.3042 320 17.289 320 23.5294V23.5294ZM94.1177 122.353H47.0588V272.941H94.1177V122.353ZM98.3529 70.5882C98.3777 67.0286 97.7012 63.499 96.3618 60.2008C95.0225 56.9027 93.0467 53.9007 90.5471 51.3662C88.0476 48.8317 85.0733 46.8143 81.794 45.4293C78.5148 44.0443 74.9949 43.3188 71.4353 43.2941H70.5882C63.3494 43.2941 56.407 46.1697 51.2884 51.2884C46.1697 56.407 43.2941 63.3494 43.2941 70.5882C43.2941 77.8271 46.1697 84.7695 51.2884 89.8881C56.407 95.0067 63.3494 97.8824 70.5882 97.8824V97.8824C74.1481 97.9699 77.6903 97.3552 81.0125 96.0733C84.3348 94.7915 87.3718 92.8675 89.9502 90.4115C92.5286 87.9554 94.5979 85.0154 96.0396 81.7594C97.4814 78.5034 98.2675 74.9952 98.3529 71.4353V70.5882ZM272.941 181.459C272.941 136.188 244.141 118.588 215.529 118.588C206.161 118.119 196.834 120.114 188.478 124.375C180.121 128.636 173.028 135.013 167.906 142.871H166.588V122.353H122.353V272.941H169.412V192.847C168.732 184.644 171.315 176.504 176.602 170.195C181.889 163.886 189.452 159.918 197.647 159.153H199.435C214.4 159.153 225.506 168.565 225.506 192.282V272.941H272.565L272.941 181.459Z" fill="white"/>
</svg>
